<svg xmlns="http://www.w3.org/2000/svg">
    <symbol viewBox="0 0 512.022 512.022" id="logo">
        <path
            d="m492.286 230.12c-22.056-25.325-59.185-32.492-92.462-18.599-3.541-4.342-7.412-8.262-11.551-11.739-18.583-15.606-42.923-23.047-68.531-20.949-.305.025-.609.058-.914.086-7.087-14.48-18.701-25.75-32.755-32.396v-46.511h30.121c5.522 0 10-4.477 10-10v-40c0-5.523-4.478-10-10-10h-30.121v-30.001c0-5.523-4.478-10-10-10h-40.122c-5.523 0-10 4.477-10 10v30.001h-30.122c-5.523 0-10 4.477-10 10v40c0 5.523 4.477 10 10 10h30.122v46.505c-14.065 6.647-25.678 17.926-32.764 32.424-14.76-1.366-29.61.454-43.54 5.731-14.76 5.592-27.592 14.832-37.418 26.862-33.285-13.909-70.428-6.745-92.492 18.587-10.914 12.53-23.052 35.097-18.904 71.445 3.581 31.382 18.578 66.222 44.571 103.592v76.854c0 4.756 3.35 8.854 8.011 9.8 66.055 13.404 134.218 20.2 202.597 20.2 68.378 0 136.542-6.796 202.596-20.2 4.662-.946 8.012-5.044 8.012-9.8v-76.854c25.993-37.37 40.989-72.21 44.57-103.592 4.148-36.349-7.991-58.915-18.904-71.446zm-116.876-15.022c18.342 15.404 27.626 40.041 26.145 69.374-1.8 35.621-19.172 78.088-50.281 123.026-15.023 1.424-30.1 2.52-45.204 3.269 6.37-11.105 10.093-24.433 10.093-38.758 0-34.632-21.729-63.454-50.151-69.014v-78.943c32.646-30.428 79.036-34.456 109.398-8.954zm-140.99 199.033c-.263-.233-.537-.454-.825-.659-10.692-8.993-17.736-24.223-17.736-41.463 0-27.57 18.012-50 40.152-50s40.152 22.43 40.152 50c0 17.24-7.043 32.469-17.734 41.462-.289.206-.565.428-.83.663-6.24 4.976-13.645 7.875-21.589 7.875-7.943 0-15.35-2.901-21.59-7.878zm1.531-334.119h-30.122v-20h30.122c5.523 0 10-4.477 10-10v-30.001h20.122v30.001c0 5.523 4.478 10 10 10h30.121v20h-30.121c-5.522 0-10 4.477-10 10v50.518c-3.295-.47-6.653-.719-10.061-.719s-6.766.25-10.061.719v-50.518c0-5.523-4.477-10-10-10zm20.06 79.799c17.414 0 33.116 8.82 42.166 23.097-15.202 4.532-29.599 12.453-42.177 23.269-12.689-10.893-27.129-18.726-42.187-23.219 9.042-14.309 24.749-23.147 42.198-23.147zm-221.193 83.445c15.638-17.956 41.909-23.391 66.367-14.558-6.157 12.397-9.729 26.428-10.623 41.908-.319 5.514 3.893 10.242 9.406 10.561 5.504.32 10.242-3.892 10.561-9.406 1.911-33.06 18.751-57.985 46.203-68.385 29.264-11.085 63.891-2.956 89.279 20.671v78.948c-28.423 5.56-50.152 34.382-50.152 69.014 0 14.325 3.723 27.653 10.093 38.758-15.105-.749-30.183-1.845-45.208-3.269-12.664-18.291-23.122-36.253-31.114-53.449-2.327-5.008-8.273-7.182-13.283-4.854-5.008 2.328-7.181 8.275-4.854 13.283 6.379 13.725 14.216 27.868 23.38 42.227-24.767-2.998-49.337-6.912-73.583-11.729-23.756-34.321-37.407-65.822-40.586-93.678-2.63-23.042 2.251-42.421 14.114-56.042zm411.801 230.545c-62.242 12.085-126.324 18.21-190.608 18.21s-128.366-6.125-190.608-18.21v-59.637c52.01 9.886 105.41 15.708 158.975 17.349 9.197 6.645 20.034 10.496 31.633 10.496s22.435-3.851 31.632-10.496c53.565-1.641 106.965-7.463 158.976-17.349zm44.699-174.503c-3.179 27.856-16.83 59.358-40.585 93.679-24.245 4.816-48.813 8.73-73.579 11.728 50.083-78.382 52.581-137.9 33.699-176.013 24.454-8.824 50.715-3.388 66.351 14.564 11.863 13.621 16.744 33 14.114 56.042z"
        />
        <path
            d="m266.016 372.009c0-5.523-4.478-10-10-10h-.007c-5.523 0-9.997 4.477-9.997 10s4.481 10 10.004 10c5.522 0 10-4.478 10-10z"
        />
        <path
            d="m183.627 449.444h-.007c-5.523 0-9.997 4.477-9.997 10s4.481 10 10.004 10 10-4.477 10-10-4.477-10-10-10z"
        />
        <path
            d="m116.287 442.393h-.007c-5.523 0-9.997 4.477-9.997 10s4.481 10 10.004 10 10-4.477 10-10-4.477-10-10-10z"
        />
        <path
            d="m328.396 469.444h.007c5.522 0 9.997-4.477 9.997-10s-4.481-10-10.004-10-10 4.477-10 10 4.477 10 10 10z"
        />
        <path
            d="m395.735 462.393h.007c5.522 0 9.997-4.477 9.997-10s-4.481-10-10.004-10-10 4.477-10 10 4.478 10 10 10z"
        />
        <path
            d="m256.011 452.009c-5.523 0-10 4.477-10 10s4.477 10 10 10h.007c5.522 0 9.996-4.477 9.996-10s-4.48-10-10.003-10z"
        />
        <path
            d="m105.251 325.938c5.523 0 10-4.477 10-10s-4.477-10-10-10h-.007c-5.523 0-9.996 4.477-9.996 10s4.48 10 10.003 10z"
        />
    </symbol>

    <symbol viewBox="0 0 30 30" id="blockquote">
        <path
            fill="none"
            d="M27.3409813,7.85928634 L27.3400489,7.85768868 C26.0640438,5.66494194 24.3374718,3.9352813 22.1512795,2.65948636 C19.9685067,1.38568693 17.5893095,0.75 15,0.75 C12.4106905,0.75 10.0314933,1.38568693 7.84872048,2.65948636 C5.66219583,3.93547525 3.93547525,5.66219583 2.65948636,7.84872048 C1.38568693,10.0314933 0.75,12.4106905 0.75,15 C0.75,17.5893095 1.38568693,19.9685067 2.65948636,22.1512795 C3.93547525,24.3378042 5.66219583,26.0645247 7.84872048,27.3405136 C10.0314933,28.6143131 12.4106905,29.25 15,29.25 C17.5893095,29.25 19.9685067,28.6143131 22.1512795,27.3405136 C24.3378042,26.0645247 26.0645247,24.3378042 27.3405136,22.1512795 C28.6143131,19.9685067 29.25,17.5893095 29.25,15 C29.25,12.4109305 28.6144399,10.0352933 27.3409813,7.85928634 Z"
        ></path>
        <path
            stroke="none"
            d="M14.2393002,15.108296 C13.986678,16.5264116 13.2520409,17.8504841 12.035389,19.0805133 C10.8187371,20.3105425 10.028744,20.5063919 9.66540986,19.6680616 C10.7111351,19.3067493 11.3742221,18.7451885 11.654671,17.9833793 C11.8559803,17.4365439 11.9127875,16.9647736 11.8250926,16.5680683 C11.6583694,16.5885589 11.4956457,16.5991425 11.3438818,16.5991425 C10.7372196,16.5991425 10.1777346,16.4516371 9.66540986,16.1566219 C9.15308514,15.8616067 8.74744034,15.4613372 8.44846331,14.9558014 C8.14948628,14.4502656 8,13.8981944 8,13.2995713 C8,12.7009481 8.14948628,12.148877 8.44846331,11.6433412 C8.74744034,11.1378054 9.15308514,10.7375358 9.66540986,10.4425206 C10.1777346,10.1475054 10.7372196,10 11.3438818,10 C11.9505439,10 12.5100289,10.1475054 13.0223537,10.4425206 C13.5346784,10.7375358 13.7262096,10.91734 14.0251866,11.4243079 C14.3241636,11.9284116 14.5021669,12.4644545 14.5021669,13.0630776 C14.5021669,13.6617007 14.5382773,14.6027602 14.2393002,15.108296 Z"
        ></path>
        <path
            stroke="none"
            d="M22.4132334,15.108296 C22.1606112,16.5264116 21.4259741,17.8504841 20.2093222,19.0805133 C18.9926703,20.3105425 18.2026772,20.5063919 17.8393431,19.6680616 C18.8850683,19.3067493 19.5481553,18.7451885 19.8286042,17.9833793 C20.0299135,17.4365439 20.0867207,16.9647736 19.9990258,16.5680683 C19.8323026,16.5885589 19.6695789,16.5991425 19.517815,16.5991425 C18.9111528,16.5991425 18.3516678,16.4516371 17.8393431,16.1566219 C17.3270183,15.8616067 16.9213736,15.4613372 16.6223965,14.9558014 C16.3234195,14.4502656 16.1739332,13.8981944 16.1739332,13.2995713 C16.1739332,12.7009481 16.3234195,12.148877 16.6223965,11.6433412 C16.9213736,11.1378054 17.3270183,10.7375358 17.8393431,10.4425206 C18.3516678,10.1475054 18.9111528,10 19.517815,10 C20.1244771,10 20.6839622,10.1475054 21.1962869,10.4425206 C21.7086116,10.7375358 21.9001428,10.91734 22.1991198,11.4243079 C22.4980969,11.9284116 22.6761001,12.4644545 22.6761001,13.0630776 C22.6761001,13.6617007 22.7122105,14.6027602 22.4132334,15.108296 Z"
        ></path>
    </symbol>

    <symbol viewBox="0 0 365.71733 365" id="cross">
        <path
            d="m356.339844 296.347656-286.613282-286.613281c-12.5-12.5-32.765624-12.5-45.246093 0l-15.105469 15.082031c-12.5 12.503906-12.5 32.769532 0 45.25l286.613281 286.613282c12.503907 12.5 32.769531 12.5 45.25 0l15.082031-15.082032c12.523438-12.480468 12.523438-32.75.019532-45.25zm0 0"
        />
        <path
            d="m295.988281 9.734375-286.613281 286.613281c-12.5 12.5-12.5 32.769532 0 45.25l15.082031 15.082032c12.503907 12.5 32.769531 12.5 45.25 0l286.632813-286.59375c12.503906-12.5 12.503906-32.765626 0-45.246094l-15.082032-15.082032c-12.5-12.523437-32.765624-12.523437-45.269531-.023437zm0 0"
        />
    </symbol>

    <symbol viewBox="0 0 30 30" id="vk">
        <path d="M15.525899,19.8733784 C15.525899,19.8733784 15.80993,19.8424002 15.9554093,19.6890203 C16.0885729,19.548485 16.0839545,19.2832813 16.0839545,19.2832813 C16.0839545,19.2832813 16.0662507,18.0449086 16.6520166,17.8620616 C17.2293154,17.6822369 17.970567,19.0596338 18.7572329,19.5892855 C19.3514658,19.9897355 19.8025286,19.9020899 19.8025286,19.9020899 L21.9046659,19.8733784 C21.9046659,19.8733784 23.0038428,19.8068886 22.4827345,18.9583879 C22.4396295,18.8888758 22.1786904,18.3305125 20.920179,17.1835633 C19.6016286,15.9829689 19.7786669,16.1771494 21.3658537,14.1000983 C22.3326368,12.8352808 22.7190421,12.0630923 22.5981942,11.73291 C22.4835042,11.4170834 21.7722721,11.5009512 21.7722721,11.5009512 L19.4061167,11.515307 C19.4061167,11.515307 19.2306179,11.4918844 19.1005332,11.5681966 C18.9735275,11.6429976 18.8911662,11.8175334 18.8911662,11.8175334 C18.8911662,11.8175334 18.5170766,12.7959914 18.0175207,13.6286251 C16.9637579,15.3845606 16.5427147,15.4774952 16.3702947,15.3686937 C15.9692645,15.114068 16.0693296,14.3471684 16.0693296,13.8024053 C16.0693296,12.1001151 16.3325779,11.3906386 15.557458,11.207036 C15.3003676,11.1458352 15.1110136,11.1057902 14.452893,11.0989901 C13.6084973,11.0906788 12.8941862,11.1020123 12.4893073,11.2961928 C12.2199012,11.4253946 12.0120737,11.7140208 12.1390794,11.7306433 C12.2953349,11.7510436 12.6494115,11.8243335 12.8372261,12.0751814 C13.0796916,12.3993192 13.0712245,13.1261737 13.0712245,13.1261737 C13.0712245,13.1261737 13.210546,15.1299348 12.745628,15.3785161 C12.4269591,15.549274 11.9897514,15.200958 11.049909,13.6074693 C10.5688266,12.791458 10.2055133,11.8893121 10.2055133,11.8893121 C10.2055133,11.8893121 10.1354677,11.7208209 10.0100014,11.630153 C9.85836425,11.5205959 9.64668802,11.4865954 9.64668802,11.4865954 L7.39830162,11.5009512 C7.39830162,11.5009512 7.06038939,11.510018 6.93646258,11.6543311 C6.82639094,11.7820218 6.92799553,12.0472254 6.92799553,12.0472254 C6.92799553,12.0472254 8.68837201,16.0902593 10.6819772,18.1280208 C12.5100901,19.9957801 14.5852868,19.8733784 14.5852868,19.8733784 L15.525899,19.8733784 Z"></path>
    </symbol>

    <symbol viewBox="0 0 30 30" id="fb">
        <path d="M15.7293542,22.8346274 L15.7293542,14.8435787 L17.9352332,14.8435787 L18.2275598,12.089819 L15.7293542,12.089819 L15.733102,10.7115358 C15.733102,9.99331286 15.8013428,9.60847261 16.8329183,9.60847261 L18.211944,9.60847261 L18.211944,6.8544011 L16.0057528,6.8544011 C13.3557623,6.8544011 12.4230343,8.1902708 12.4230343,10.4367836 L12.4230343,12.0901309 L10.7712017,12.0901309 L10.7712017,14.8438905 L12.4230343,14.8438905 L12.4230343,22.8346274 L15.7293542,22.8346274 Z"></path>
    </symbol>
</svg>